#N canvas 636 -1055 1040 1027 10;
#X obj 40 60 hsl 162 19 0 1000 0 0 displayFreqC freqMod Frequency\ (carrier) -2 -10 0 12 #ff0400 #000000 #000000 0 1;
#N canvas 960 123 552 831 dsp 0;
#X obj 23 47 r freqC;
#X obj 23 116 sig~;
#X obj 103 154 *~;
#X text 23 70 set carrier freq;
#X obj 168 46 r harmonicRatio;
#X floatatom 168 73 5 0 0 0 - - - 0;
#X text 168 97 set modulator by harmonic ratio;
#X obj 24 264 +~;
#X text 23 25 FM synth determined by harmonic ratio;
#X obj 103 191 osc~;
#X obj 161 191 *~;
#X obj 176 131 r modulationIndex;
#X floatatom 176 154 5 0 0 0 - - - 0;
#X obj 103 221 *~;
#X floatatom 23 91 5 0 0 0 - - - 0;
#X obj 77 605 r amp;
#X floatatom 77 628 5 0 0 0 - - - 0;
#X msg 77 650 \$1 10;
#X obj 77 673 line~;
#X obj 24 703 *~;
#X obj 24 298 osc~;
#X obj 24 487 *~;
#X obj 134 408 osc~ 2;
#X floatatom 134 387 5 0 0 0 LFO\ freq\ (sine) - - 0;
#X obj 134 362 r freqLFOsin;
#X obj 224 310 r freqLFOsqr;
#X floatatom 224 336 5 0 0 0 - - - 0;
#X obj 224 389 phasor~;
#X obj 304 362 * -1;
#X obj 304 389 phasor~;
#X obj 224 417 +~;
#X obj 224 445 -~ 0.5;
#X msg 315 326 0;
#X msg 351 326 0.5;
#X obj 315 296 bng 16 250 50 0 empty empty empty 0 -8 0 10 #fcfcfc #000000 #000000;
#X obj 315 266 loadbang;
#X obj 23 738 dac~;
#X connect 0 0 14 0;
#X connect 1 0 2 0;
#X connect 1 0 7 0;
#X connect 2 0 9 0;
#X connect 2 0 10 0;
#X connect 4 0 5 0;
#X connect 5 0 2 1;
#X connect 7 0 20 0;
#X connect 9 0 13 0;
#X connect 10 0 13 1;
#X connect 11 0 12 0;
#X connect 12 0 10 1;
#X connect 13 0 7 1;
#X connect 14 0 1 0;
#X connect 15 0 16 0;
#X connect 16 0 17 0;
#X connect 17 0 18 0;
#X connect 18 0 19 1;
#X connect 19 0 36 0;
#X connect 19 0 36 1;
#X connect 20 0 21 0;
#X connect 21 0 19 0;
#X connect 22 0 21 1;
#X connect 23 0 22 0;
#X connect 24 0 23 0;
#X connect 25 0 26 0;
#X connect 26 0 27 0;
#X connect 26 0 28 0;
#X connect 27 0 30 0;
#X connect 28 0 29 0;
#X connect 29 0 30 1;
#X connect 30 0 31 0;
#X connect 31 0 21 1;
#X connect 32 0 27 1;
#X connect 33 0 29 1;
#X connect 34 0 32 0;
#X connect 34 0 33 0;
#X connect 35 0 34 0;
#X restore 51 591 pd dsp;
#X floatatom 37 91 5 0 0 0 Hz displayFreqC freqC 0;
#X obj 41 136 hsl 162 19 0 32 0 0 displayLFOfreqSqr lfoMod LFO\ freq\ (square) -2 -10 0 12 #ffc7c6 #000000 #000000 0 1;
#X floatatom 38 167 5 0 0 0 Hz displayLFOfreqSqr freqLFOsqr 0;
#X obj 41 512 hsl 162 19 0.01 1 1 0 ampDisplayC userAmp Amplitude\ (carrier) -2 -10 0 12 #00ff04 #000000 #000000 0 1;
#X floatatom 38 543 5 0 0 0 amp ampDisplayC amp 0;
#X obj 41 359 hsl 162 19 0 32 0 0 dispHR modMod harmonic\ ratio -2 -10 0 12 #c6ffc7 #000000 #000000 0 1;
#X floatatom 38 390 5 0 0 0 HR dispHR harmonicRatio 0;
#X obj 41 435 hsl 162 19 0 32 0 0 dispMI modMod modulation\ index -2 -10 0 12 #c6feff #000000 #000000 0 1;
#X floatatom 38 466 5 0 0 0 MI dispMI modulationIndex 0;
#X obj 40 213 hsl 162 19 0 32 0 0 displayLFOsinFreq lfoMod LFO\ freq\ (sin) -2 -10 0 12 #ffe3c6 #000000 #000000 0 1;
#X floatatom 37 244 5 0 0 0 Hz displayLFOsinFreq freqLFOsin 0;
#X obj 220 97 s orientation;
#X obj 223 125 r orientation;
#X obj 224 158 unpack f f f;
#X obj 224 188 s pitch;
#X obj 258 223 s roll;
#X obj 297 252 s yaw;
#X floatatom 278 280 5 0 0 0 pitch pitch - 24;
#X floatatom 277 319 5 0 0 0 roll roll - 24;
#X floatatom 275 357 5 0 0 0 yaw yaw - 24;
#X obj 91 254 receive fromGUI;
#X obj 91 278 route list;
#X obj 115 316 route /userAmp;
#X obj 220 13 receive fromSystem;
#X obj 220 69 route /motion;
#X obj 220 41 route list;
#N canvas 132 249 1088 516 sensorProcessing 0;
#X obj 588 57 expr ($f1 - -3) / 6;
#X obj 44 57 expr ($f1 - -1.5) / 3;
#X floatatom 44 87 5 0 0 0 - - - 0;
#X obj 587 57 expr ($f1 - -3) / 6;
#X obj 734 57 expr ($f1 - -3) / 6;
#X obj 44 27 r pitch;
#X obj 588 27 r roll;
#X obj 734 27 r yaw;
#X floatatom 588 87 5 0 0 0 - - - 0;
#X floatatom 734 87 5 0 0 0 - - - 0;
#X floatatom 734 176 5 0 0 0 - - - 0;
#X floatatom 44 319 5 0 0 0 - - - 0;
#X floatatom 588 176 5 0 0 0 - - - 0;
#X obj 44 408 s freqMod;
#X obj 588 265 s lfoMod;
#X obj 734 265 s modMod;
#X obj 44 378 line;
#X msg 44 348 \$1 10;
#X obj 588 235 line;
#X msg 588 205 \$1 10;
#X obj 734 235 line;
#X msg 734 205 \$1 10;
#X obj 95 7 hsl 136 16 -1.5 1.5 0 0 empty empty empty -2 -8 0 10 #fcfcfc #000000 #000000 0 1;
#X obj 647 6 hsl 136 16 -3 3 0 0 empty empty empty -2 -8 0 10 #fcfcfc #000000 #000000 0 1;
#X obj 806 10 hsl 136 16 -3 3 0 0 empty empty empty -2 -8 0 10 #fcfcfc #000000 #000000 0 1;
#X obj 734 111 * 16;
#X obj 742 146 + 8;
#X obj 588 146 * 8;
#X obj 108 108 r midiNote;
#X text 189 146 get min/max for pitch bend;
#X obj 108 155 mtof;
#X floatatom 108 202 5 0 0 0 - - - 0;
#X obj 148 155 mtof;
#X floatatom 148 202 5 0 0 0 - - - 0;
#X obj 44 259 * 1;
#X obj 108 233 -;
#X obj 44 289 + 0;
#X floatatom 108 254 5 0 0 0 - - - 0;
#X obj 108 134 - 1.5;
#X obj 148 134 + 1.5;
#X obj 108 176 * 2;
#X obj 148 176 * 2;
#X connect 0 0 8 0;
#X connect 1 0 2 0;
#X connect 2 0 34 0;
#X connect 4 0 9 0;
#X connect 5 0 1 0;
#X connect 6 0 0 0;
#X connect 7 0 4 0;
#X connect 8 0 27 0;
#X connect 9 0 25 0;
#X connect 10 0 21 0;
#X connect 11 0 17 0;
#X connect 12 0 19 0;
#X connect 16 0 13 0;
#X connect 17 0 16 0;
#X connect 18 0 14 0;
#X connect 19 0 18 0;
#X connect 20 0 15 0;
#X connect 21 0 20 0;
#X connect 22 0 1 0;
#X connect 23 0 0 0;
#X connect 24 0 4 0;
#X connect 25 0 26 0;
#X connect 26 0 10 0;
#X connect 27 0 12 0;
#X connect 28 0 38 0;
#X connect 28 0 39 0;
#X connect 30 0 40 0;
#X connect 31 0 35 1;
#X connect 31 0 36 1;
#X connect 32 0 41 0;
#X connect 33 0 35 0;
#X connect 34 0 36 0;
#X connect 35 0 34 1;
#X connect 35 0 37 0;
#X connect 36 0 11 0;
#X connect 38 0 30 0;
#X connect 39 0 32 0;
#X connect 40 0 31 0;
#X connect 41 0 33 0;
#X restore 90 568 pd sensorProcessing;
#X obj 227 580 metro;
#X obj 255 527 /;
#X obj 255 456 r freqLFOsin;
#X obj 255 481 bng 16 250 50 0 empty empty empty 0 -8 0 10 #fcfcfc #000000 #000000;
#X msg 255 506 1000;
#X floatatom 254 547 5 0 0 0 - - - 0;
#X obj 227 605 bng 16 250 50 0 empty empty empty 0 -8 0 10 #fcfcfc #000000 #000000;
#X obj 227 630 tgl 16 0 empty empty empty 0 -8 0 10 #fcfcfc #000000 #000000 0 1;
#X msg 227 655 list /flash \$1;
#X obj 227 680 send toSystem;
#X obj 371 84 tgl 16 0 empty empty empty 0 -8 0 10 #fcfcfc #000000 #000000 0 1;
#X obj 371 7 bng 50 250 50 0 empty empty empty 0 -8 0 10 #fcfcfc #000000 #000000;
#X msg 371 140 1;
#X floatatom 371 205 5 0 0 0 - - - 0;
#X obj 371 167 + 0;
#X obj 412 144 sel 0;
#X msg 412 178 0;
#X floatatom 371 230 5 0 0 0 - - - 0;
#X text 296 481 turn phone light on/off at pulse rate, f 14;
#X text 413 79 a seconds counter count 0-59 then reset, f 21;
#X obj 421 250 s seconds;
#X obj 371 250 sel 60;
#X text 423 295 count minutes;
#X floatatom 371 337 5 0 0 0 - - - 0;
#X msg 371 279 1;
#X obj 371 308 + 0;
#X floatatom 371 360 5 0 0 0 - - - 0;
#X floatatom 369 412 5 0 0 3 min. minutes - 24;
#X floatatom 447 412 5 0 0 3 sec. seconds - 24;
#X obj 371 383 s minutes;
#X obj 453 63 s startBang;
#X text 439 7 start 30 seconds before piece begins (time to put sphere back together and set down), f 27;
#X obj 674 496 random 30;
#X obj 681 442 bng 16 250 50 0 empty empty empty 0 -8 0 10 #fcfcfc #000000 #000000;
#X floatatom 674 517 5 0 0 0 - - - 0;
#X floatatom 506 161 5 1 6 2 PART\ (1-6) - partNum 24;
#X obj 451 537 sel 1 2 3 4 5 6, f 27;
#X obj 451 560 bng 16 250 50 0 empty empty empty 0 -8 0 10 #fcfcfc #000000 #000000;
#X obj 477 560 bng 16 250 50 0 empty empty empty 0 -8 0 10 #fcfcfc #000000 #000000;
#X obj 504 560 bng 16 250 50 0 empty empty empty 0 -8 0 10 #fcfcfc #000000 #000000;
#X obj 530 560 bng 16 250 50 0 empty empty empty 0 -8 0 10 #fcfcfc #000000 #000000;
#X obj 557 560 bng 16 250 50 0 empty empty empty 0 -8 0 10 #fcfcfc #000000 #000000;
#X obj 583 560 bng 16 250 50 0 empty empty empty 0 -8 0 10 #fcfcfc #000000 #000000;
#X obj 451 506 r partNum;
#X obj 451 704 + 0;
#X obj 451 663 random 20;
#X obj 477 722 + 30;
#X obj 504 744 + 60;
#X obj 530 722 + 90;
#X obj 557 744 + 120;
#X obj 583 723 + 150;
#X floatatom 451 776 5 0 0 0 - - - 0;
#X floatatom 477 797 5 0 0 0 - - - 0;
#X floatatom 504 776 5 0 0 0 - - - 0;
#X floatatom 530 797 5 0 0 0 - - - 0;
#X floatatom 557 776 5 0 0 0 - - - 0;
#X floatatom 583 797 5 0 0 0 - - - 0;
#X text 77 705 wait two minutes \, plus a random amount of time (range determined by partNum), f 27;
#X obj 151 461 r startBang;
#X msg 151 482 0;
#X obj 72 974 s userAmp;
#X obj 72 887 line;
#X obj 371 64 del 30000;
#X floatatom 72 952 5 0 0 0 - - - 0;
#X msg 72 862 0 \, 1 15000;
#X obj 71 915 expr pow($f1 \, 4);
#X obj 183 884 bng 16 250 50 0 empty empty empty 0 -8 0 10 #fcfcfc #000000 #000000;
#X obj 183 905 tgl 16 0 empty empty empty 0 -8 0 10 #fcfcfc #000000 #000000 0 1;
#X msg 497 599 61;
#X msg 514 643 63;
#X obj 358 669 s midiNote;
#X obj 12 0 r midiNote;
#X obj 12 21 mtof;
#X obj 12 42 * 2;
#X msg 409 600 68;
#X msg 462 601 70;
#X msg 544 614 53;
#X msg 572 595 51;
#X obj 583 703 random 30;
#X obj 477 683 random 22;
#X obj 504 703 random 24;
#X obj 530 663 random 26;
#X obj 557 682 random 28;
#X obj 595 518 send toGUI;
#X text 612 616 each ball turns at a random time within each new 30 second interval, f 17;
#X obj 642 328 receive fromGUI;
#X obj 642 349 route list;
#X obj 642 370 route /myPart;
#X obj 642 391 + 1;
#X floatatom 455 220 5 0 0 0 - - - 0;
#X obj 455 182 + 0;
#X msg 467 159 0;
#X obj 455 240 s masterSeconds;
#X msg 604 416 list /myLabel;
#X obj 19 684 r masterSeconds;
#X obj 67 781 tgl 16 0 empty empty empty 0 -8 0 10 #fcfcfc #000000 #000000 0 1;
#X obj 15 304 route /masterStart;
#X msg 358 603 \$1 : \$2;
#X obj 358 624 print;
#X msg 595 466 list /myLabel \$1 : \$2;
#X obj 382 532 makefilename %d;
#X obj 371 479 makefilename %d;
#X obj 358 571 pack s s;
#X obj 382 553 t b s;
#X obj 248 866 sel 660;
#X text 306 865 at 11:00 \, start stopping;
#X obj 247 938 line;
#X obj 247 959 expr pow($f1 \, 4);
#X floatatom 247 980 5 0 0 0 - - - 0;
#X obj 248 999 s userAmp;
#X obj 265 890 del 35000;
#X msg 247 917 1 \, 0 30000;
#X obj 18 900 tgl 16 0 empty empty empty 0 -8 0 10 #fcfcfc #000000 #000000 0 1;
#X msg 415 361 0;
#X obj 65 822 sel 120;
#X msg 89 771 120;
#X obj 89 792 +;
#X obj 451 846 * 1;
#X text 497 845 keep as seconds;
#X msg 278 820 660;
#X obj 159 756 bng 16 250 50 0 empty empty empty 0 -8 0 10 #fcfcfc #000000 #000000;
#X obj 278 841 +;
#X obj 371 112 metro 1000;
#X msg 390 914 0;
#X obj 377 881 del 1000;
#X connect 14 0 15 0;
#X connect 15 0 16 0;
#X connect 15 1 17 0;
#X connect 15 2 18 0;
#X connect 22 0 23 0;
#X connect 23 0 125 0;
#X connect 23 0 24 0;
#X connect 24 0 5 0;
#X connect 25 0 27 0;
#X connect 26 0 13 0;
#X connect 27 0 26 0;
#X connect 29 0 35 0;
#X connect 30 0 34 0;
#X connect 31 0 30 1;
#X connect 31 0 32 0;
#X connect 32 0 33 0;
#X connect 33 0 30 0;
#X connect 34 0 29 1;
#X connect 35 0 36 0;
#X connect 36 0 37 0;
#X connect 37 0 38 0;
#X connect 39 0 44 0;
#X connect 39 0 142 0;
#X connect 39 0 151 0;
#X connect 40 0 91 0;
#X connect 40 0 88 0;
#X connect 41 0 43 0;
#X connect 41 0 119 0;
#X connect 42 0 43 1;
#X connect 42 0 46 0;
#X connect 43 0 42 0;
#X connect 44 0 45 0;
#X connect 44 0 120 0;
#X connect 45 0 42 0;
#X connect 46 0 49 0;
#X connect 46 0 50 0;
#X connect 50 0 45 0;
#X connect 50 0 53 0;
#X connect 52 0 54 1;
#X connect 52 0 55 0;
#X connect 53 0 54 0;
#X connect 54 0 52 0;
#X connect 55 0 58 0;
#X connect 56 0 130 0;
#X connect 57 0 129 0;
#X connect 61 0 63 0;
#X connect 62 0 61 0;
#X connect 65 0 66 0;
#X connect 65 1 67 0;
#X connect 65 2 68 0;
#X connect 65 3 69 0;
#X connect 65 4 70 0;
#X connect 65 5 71 0;
#X connect 66 0 74 0;
#X connect 66 0 105 0;
#X connect 67 0 104 0;
#X connect 67 0 108 0;
#X connect 68 0 106 0;
#X connect 68 0 109 0;
#X connect 69 0 97 0;
#X connect 69 0 110 0;
#X connect 70 0 98 0;
#X connect 70 0 111 0;
#X connect 71 0 103 0;
#X connect 71 0 107 0;
#X connect 72 0 65 0;
#X connect 73 0 80 0;
#X connect 74 0 73 0;
#X connect 75 0 81 0;
#X connect 76 0 82 0;
#X connect 77 0 83 0;
#X connect 78 0 84 0;
#X connect 79 0 85 0;
#X connect 80 0 146 0;
#X connect 81 0 146 0;
#X connect 82 0 146 0;
#X connect 83 0 146 0;
#X connect 84 0 146 0;
#X connect 85 0 146 0;
#X connect 87 0 88 0;
#X connect 88 0 5 0;
#X connect 90 0 94 0;
#X connect 91 0 39 0;
#X connect 91 0 59 0;
#X connect 92 0 89 0;
#X connect 93 0 90 0;
#X connect 94 0 92 0;
#X connect 95 0 96 0;
#X connect 96 0 29 0;
#X connect 97 0 99 0;
#X connect 98 0 99 0;
#X connect 100 0 101 0;
#X connect 101 0 102 0;
#X connect 102 0 0 0;
#X connect 103 0 99 0;
#X connect 104 0 99 0;
#X connect 105 0 99 0;
#X connect 106 0 99 0;
#X connect 107 0 79 0;
#X connect 108 0 75 0;
#X connect 109 0 76 0;
#X connect 110 0 77 0;
#X connect 111 0 78 0;
#X connect 114 0 115 0;
#X connect 115 0 116 0;
#X connect 116 0 117 0;
#X connect 117 0 64 0;
#X connect 118 0 119 1;
#X connect 118 0 121 0;
#X connect 119 0 118 0;
#X connect 120 0 119 1;
#X connect 120 0 119 0;
#X connect 120 0 52 0;
#X connect 122 0 112 0;
#X connect 123 0 133 0;
#X connect 123 0 124 0;
#X connect 123 0 143 0;
#X connect 125 0 40 0;
#X connect 126 0 127 0;
#X connect 128 0 112 0;
#X connect 129 0 132 0;
#X connect 130 0 131 0;
#X connect 131 0 126 0;
#X connect 131 0 128 0;
#X connect 132 0 131 0;
#X connect 132 1 131 1;
#X connect 133 0 140 0;
#X connect 133 0 139 0;
#X connect 135 0 136 0;
#X connect 136 0 137 0;
#X connect 137 0 138 0;
#X connect 139 0 96 0;
#X connect 139 0 153 0;
#X connect 140 0 135 0;
#X connect 142 0 58 0;
#X connect 143 0 95 0;
#X connect 143 0 93 0;
#X connect 144 0 145 0;
#X connect 145 0 143 1;
#X connect 146 0 145 1;
#X connect 146 0 149 0;
#X connect 146 0 150 1;
#X connect 148 0 150 0;
#X connect 149 0 144 0;
#X connect 149 0 148 0;
#X connect 150 0 133 1;
#X connect 151 0 41 0;
#X connect 152 0 37 0;
#X connect 153 0 152 0;
